<svg width="0" height="0" class="hidden">

    <symbol xmlns="http://www.w3.org/2000/svg" viewBox="0 0 98 27" id="logo">
        <path d="M2.048 18.392V3.608L0.248 3.416V1.808H7.136V3.416L5.072 3.632L5.048 18.464L10.544 18.128L12.176 15.32L13.496 15.896L12.704 20H0.2V18.752L2.048 18.392ZM18.2096 0.343998C18.8016 0.343998 19.2496 0.503999 19.5536 0.823999C19.8736 1.128 20.0336 1.544 20.0336 2.072C20.0336 2.664 19.8176 3.152 19.3856 3.536C18.9536 3.92 18.4496 4.112 17.8736 4.112C17.3776 4.112 16.9456 3.952 16.5776 3.632C16.2256 3.312 16.0496 2.896 16.0496 2.384C16.0496 1.824 16.2736 1.344 16.7216 0.943999C17.1696 0.543999 17.6656 0.343998 18.2096 0.343998ZM19.7696 6.848V18.512L21.5936 18.776V20H15.0416V18.776L16.8896 18.512V9.752L15.3056 8.6V7.736L19.0736 6.608L19.7696 6.848ZM27.7596 6.896H31.6956V8.6H27.8316V13.952C27.8316 15.184 27.8556 16.088 27.9036 16.664C27.9676 17.24 28.0876 17.672 28.2636 17.96C28.4556 18.232 28.7676 18.368 29.1996 18.368C29.5356 18.368 29.9436 18.312 30.4236 18.2C30.9196 18.088 31.2636 17.968 31.4556 17.84L31.9356 18.992C31.5356 19.392 30.9356 19.712 30.1356 19.952C29.3516 20.176 28.5996 20.288 27.8796 20.288C26.8556 20.288 26.1116 19.992 25.6476 19.4C25.1836 18.808 24.9516 17.872 24.9516 16.592V8.6H23.1756V7.568C23.9276 7.376 24.4236 7.232 24.6636 7.136C24.9196 7.024 25.1436 6.816 25.3356 6.512C25.5756 6.096 25.9036 5.176 26.3196 3.752H27.7596V6.896ZM37.019 0.343998C37.611 0.343998 38.059 0.503999 38.363 0.823999C38.683 1.128 38.843 1.544 38.843 2.072C38.843 2.664 38.627 3.152 38.195 3.536C37.763 3.92 37.259 4.112 36.683 4.112C36.187 4.112 35.755 3.952 35.387 3.632C35.035 3.312 34.859 2.896 34.859 2.384C34.859 1.824 35.083 1.344 35.531 0.943999C35.979 0.543999 36.475 0.343998 37.019 0.343998ZM38.579 6.848V18.512L40.403 18.776V20H33.851V18.776L35.699 18.512V9.752L34.115 8.6V7.736L37.883 6.608L38.579 6.848ZM48.249 6.44C49.737 6.44 50.929 6.768 51.825 7.424C52.145 6.912 52.857 6.656 53.961 6.656H55.233V8.816H52.905C53.177 9.36 53.313 10.008 53.313 10.76C53.313 11.768 53.065 12.632 52.569 13.352C52.073 14.072 51.409 14.616 50.577 14.984C49.745 15.336 48.817 15.512 47.793 15.512C46.961 15.512 46.185 15.4 45.465 15.176C45.369 15.432 45.321 15.696 45.321 15.968C45.321 16.24 45.321 16.392 45.321 16.424C45.321 16.872 45.441 17.208 45.681 17.432C45.937 17.656 46.337 17.776 46.881 17.792C47.409 17.824 48.385 17.84 49.809 17.84C51.729 17.84 53.041 18.168 53.745 18.824C54.449 19.48 54.801 20.4 54.801 21.584C54.801 22.544 54.513 23.368 53.937 24.056C53.361 24.76 52.561 25.296 51.537 25.664C50.529 26.032 49.369 26.216 48.057 26.216C46.377 26.216 44.993 25.944 43.905 25.4C42.817 24.856 42.273 23.968 42.273 22.736C42.273 22.08 42.465 21.464 42.849 20.888C43.249 20.328 43.721 19.888 44.265 19.568C43.849 19.424 43.545 19.248 43.353 19.04C43.161 18.816 43.041 18.592 42.993 18.368C42.961 18.128 42.945 17.824 42.945 17.456C42.945 17.12 43.089 16.68 43.377 16.136C43.665 15.576 44.017 15.112 44.433 14.744C43.089 13.976 42.417 12.784 42.417 11.168C42.417 10.128 42.689 9.256 43.233 8.552C43.777 7.848 44.489 7.32 45.369 6.968C46.249 6.616 47.209 6.44 48.249 6.44ZM47.793 7.808C47.041 7.808 46.441 8.032 45.993 8.48C45.545 8.928 45.321 9.616 45.321 10.544C45.321 11.584 45.545 12.424 45.993 13.064C46.441 13.704 47.145 14.024 48.105 14.024C48.953 14.024 49.561 13.768 49.929 13.256C50.297 12.744 50.481 11.992 50.481 11C50.481 8.872 49.585 7.808 47.793 7.808ZM45.513 19.856C45.145 20.384 44.961 21.048 44.961 21.848C44.961 22.808 45.297 23.52 45.969 23.984C46.641 24.464 47.497 24.704 48.537 24.704C49.753 24.704 50.673 24.512 51.297 24.128C51.937 23.744 52.257 23.136 52.257 22.304C52.257 21.744 52.169 21.296 51.993 20.96C51.817 20.624 51.505 20.376 51.057 20.216C50.609 20.056 49.969 19.976 49.137 19.976L47.457 19.952C46.625 19.952 45.977 19.92 45.513 19.856ZM62.4036 6.608C63.9556 6.608 65.1556 6.952 66.0036 7.64C66.8516 8.328 67.2756 9.48 67.2756 11.096V18.776H68.7636V19.736C68.4756 19.912 68.0996 20.048 67.6356 20.144C67.1716 20.256 66.7156 20.312 66.2676 20.312C65.6916 20.312 65.2756 20.2 65.0196 19.976C64.7636 19.736 64.6276 19.352 64.6116 18.824C63.7316 19.816 62.4916 20.312 60.8916 20.312C60.0756 20.312 59.3476 20.16 58.7076 19.856C58.0676 19.536 57.5716 19.096 57.2196 18.536C56.8676 17.976 56.6916 17.344 56.6916 16.64C56.6916 15.584 57.0836 14.712 57.8676 14.024C58.6516 13.336 59.6276 12.84 60.7956 12.536C61.9636 12.216 63.1396 12.056 64.3236 12.056V11.336C64.3236 10.248 64.0756 9.488 63.5796 9.056C63.0836 8.624 62.3476 8.408 61.3716 8.408C60.8436 8.408 60.2436 8.496 59.5716 8.672C58.8996 8.848 58.3156 9.072 57.8196 9.344L57.2676 8.024C57.8116 7.576 58.5876 7.232 59.5956 6.992C60.6196 6.736 61.5556 6.608 62.4036 6.608ZM64.3236 13.496C63.1236 13.496 62.0436 13.712 61.0836 14.144C60.1396 14.576 59.6676 15.264 59.6676 16.208C59.6676 17.76 60.4916 18.536 62.1396 18.536C62.5236 18.536 62.9156 18.456 63.3156 18.296C63.7316 18.136 64.0596 17.944 64.2996 17.72L64.3236 13.496ZM82.3574 1.232V18.776H83.9654V19.808C83.6774 19.968 83.2694 20.104 82.7414 20.216C82.2134 20.328 81.6694 20.384 81.1094 20.384C80.5974 20.384 80.2294 20.288 80.0054 20.096C79.7814 19.904 79.6374 19.568 79.5734 19.088C79.2214 19.408 78.6934 19.696 77.9894 19.952C77.3014 20.192 76.5414 20.312 75.7094 20.312C74.7334 20.312 73.8454 20.048 73.0454 19.52C72.2454 18.992 71.6054 18.232 71.1254 17.24C70.6614 16.232 70.4294 15.04 70.4294 13.664C70.4294 12.288 70.7414 11.056 71.3654 9.968C72.0054 8.88 72.8614 8.032 73.9334 7.424C75.0214 6.8 76.2134 6.488 77.5094 6.488C78.2294 6.488 78.8614 6.568 79.4054 6.728V3.224L76.8614 2.72V1.448L81.7334 0.943999L82.3574 1.232ZM77.1974 7.88C76.5574 7.88 75.9494 8.08 75.3734 8.48C74.7974 8.88 74.3254 9.472 73.9574 10.256C73.6054 11.04 73.4294 11.992 73.4294 13.112C73.4294 14.2 73.5814 15.16 73.8854 15.992C74.1894 16.824 74.6054 17.464 75.1334 17.912C75.6774 18.36 76.2854 18.584 76.9574 18.584C77.4374 18.584 77.8934 18.52 78.3254 18.392C78.7734 18.264 79.1414 18.08 79.4294 17.84V8.624C78.8694 8.128 78.1254 7.88 77.1974 7.88ZM92.6256 6.488C94.1616 6.488 95.3536 6.944 96.2016 7.856C97.0656 8.768 97.4976 10.048 97.4976 11.696C97.4976 12.4 97.4416 13.064 97.3296 13.688H88.8576C88.8896 15.176 89.2656 16.336 89.9856 17.168C90.7216 18 91.7616 18.416 93.1056 18.416C93.6976 18.416 94.3296 18.352 95.0016 18.224C95.6736 18.08 96.2176 17.904 96.6336 17.696L97.1376 18.848C96.6256 19.296 95.8816 19.656 94.9056 19.928C93.9296 20.184 92.9616 20.312 92.0016 20.312C90.0496 20.296 88.5376 19.688 87.4656 18.488C86.3936 17.288 85.8576 15.656 85.8576 13.592C85.8576 12.232 86.1456 11.016 86.7216 9.944C87.2976 8.856 88.0976 8.008 89.1216 7.4C90.1456 6.792 91.3136 6.488 92.6256 6.488ZM92.0736 7.904C91.1936 7.904 90.4656 8.264 89.8896 8.984C89.3296 9.704 88.9936 10.744 88.8816 12.104H94.4976C94.5136 11.928 94.5216 11.664 94.5216 11.312C94.5216 10.128 94.2656 9.296 93.7536 8.816C93.4336 8.208 92.8736 7.904 92.0736 7.904Z"></path>
    </symbol>

    <symbol fill="none" xmlns="http://www.w3.org/2000/svg" viewBox="0 0 16 16" id="search">
        <path fill-rule="evenodd" clip-rule="evenodd" d="M11.4601 10.3185L15.7639 14.6223C15.9151 14.7737 16.0001 14.979 16 15.193C15.9999 15.407 15.9148 15.6122 15.7635 15.7635C15.6121 15.9147 15.4068 15.9997 15.1928 15.9996C14.9788 15.9995 14.7736 15.9144 14.6223 15.7631L10.3185 11.4593C9.03194 12.4558 7.41407 12.9247 5.79403 12.7707C4.17398 12.6167 2.67346 11.8513 1.59771 10.6302C0.521957 9.40911 -0.0482098 7.82408 0.00319691 6.19754C0.0546036 4.57101 0.723722 3.02514 1.87443 1.87443C3.02514 0.723722 4.57101 0.0546036 6.19754 0.00319691C7.82408 -0.0482098 9.40911 0.521957 10.6302 1.59771C11.8513 2.67346 12.6167 4.17398 12.7707 5.79403C12.9247 7.41407 12.4558 9.03194 11.4593 10.3185H11.4601ZM6.4003 11.1993C7.67328 11.1993 8.89412 10.6936 9.79425 9.79345C10.6944 8.89332 11.2001 7.67248 11.2001 6.3995C11.2001 5.12652 10.6944 3.90568 9.79425 3.00554C8.89412 2.10541 7.67328 1.59972 6.4003 1.59972C5.12732 1.59972 3.90648 2.10541 3.00634 3.00554C2.10621 3.90568 1.60052 5.12652 1.60052 6.3995C1.60052 7.67248 2.10621 8.89332 3.00634 9.79345C3.90648 10.6936 5.12732 11.1993 6.4003 11.1993Z" fill="#737373"></path>
    </symbol>
    <symbol fill="none" xmlns="http://www.w3.org/2000/svg" viewBox="0 0 24 23" id="shopping">
        <g clip-path="url(#clip0_964_18552)">
        <path d="M7.9999 22.4002C8.88356 22.4002 9.5999 21.6839 9.5999 20.8002C9.5999 19.9165 8.88356 19.2002 7.9999 19.2002C7.11625 19.2002 6.3999 19.9165 6.3999 20.8002C6.3999 21.6839 7.11625 22.4002 7.9999 22.4002Z" fill="#737373"></path>
        <path d="M19.2001 22.4002C20.0838 22.4002 20.8001 21.6839 20.8001 20.8002C20.8001 19.9165 20.0838 19.2002 19.2001 19.2002C18.3164 19.2002 17.6001 19.9165 17.6001 20.8002C17.6001 21.6839 18.3164 22.4002 19.2001 22.4002Z" fill="#737373"></path>
        <path d="M22.4 4.00016H4.656L4 0.640163C3.9626 0.456742 3.86206 0.292245 3.71589 0.175305C3.56971 0.0583653 3.38716 -0.00361159 3.2 0.000162751H0V1.60016H2.544L5.6 16.9602C5.6374 17.1436 5.73794 17.3081 5.88411 17.425C6.03029 17.542 6.21284 17.6039 6.4 17.6002H20.8V16.0002H7.056L6.4 12.8002H20.8C20.9849 12.8047 21.1657 12.745 21.3116 12.6312C21.4574 12.5174 21.5594 12.3566 21.6 12.1762L23.2 4.97616C23.2268 4.85746 23.2262 4.73421 23.1982 4.61579C23.1702 4.49737 23.1155 4.38689 23.0384 4.29278C22.9612 4.19867 22.8636 4.12339 22.753 4.07268C22.6424 4.02198 22.5217 3.99717 22.4 4.00016ZM20.16 11.2002H6.096L4.976 5.60016H21.4L20.16 11.2002Z" fill="#737373"></path>
        </g>
        <defs>
        <clipPath id="clip0_964_18552">
            <rect width="24" height="22.4002" fill="white"></rect>
        </clipPath>
        </defs>
    </symbol>
    <symbol fill="none" xmlns="http://www.w3.org/2000/svg" viewBox="0 0 24 14" id="burger">
        <path d="M0.571289 0H23.4284V2.28571H0.571289V0ZM6.28557 5.71429H23.4284V8H6.28557V5.71429ZM13.4284 11.4286H23.4284V13.7143H13.4284V11.4286Z" fill="#737373"></path>
    </symbol>

    <symbol fill="none" xmlns="http://www.w3.org/2000/svg" viewBox="0 0 25 24" id="facebook">
        <g clip-path="url(#clip0_964_14832)">
        <path d="M23.54 0H1.46C0.929 0 0.5 0.429 0.5 0.96V23.04C0.5 23.571 0.929 24 1.46 24H23.54C24.071 24 24.5 23.571 24.5 23.04V0.96C24.5 0.429 24.071 0 23.54 0ZM20.768 7.005H18.851C17.348 7.005 17.057 7.719 17.057 8.769V11.082H20.645L20.177 14.703H17.057V24H13.316V14.706H10.187V11.082H13.316V8.412C13.316 5.313 15.209 3.624 17.975 3.624C19.301 3.624 20.438 3.723 20.771 3.768V7.005H20.768Z" fill="#335BF5"></path>
        </g>
        <defs>
        <clipPath id="clip0_964_14832">
            <rect width="24" height="24" fill="white" transform="translate(0.5)"></rect>
        </clipPath>
        </defs>
    </symbol>
    <symbol fill="none" xmlns="http://www.w3.org/2000/svg" viewBox="0 0 25 24" id="instagram">
        <path d="M12.5016 5.84744C9.09659 5.84744 6.34859 8.59544 6.34859 12.0004C6.34859 15.4054 9.09659 18.1534 12.5016 18.1534C15.9066 18.1534 18.6546 15.4054 18.6546 12.0004C18.6546 8.59544 15.9066 5.84744 12.5016 5.84744ZM12.5016 15.9994C10.2996 15.9994 8.50259 14.2024 8.50259 12.0004C8.50259 9.79844 10.2996 8.00144 12.5016 8.00144C14.7036 8.00144 16.5006 9.79844 16.5006 12.0004C16.5006 14.2024 14.7036 15.9994 12.5016 15.9994ZM18.9066 4.16144C18.1116 4.16144 17.4696 4.80344 17.4696 5.59844C17.4696 6.39344 18.1116 7.03544 18.9066 7.03544C19.7016 7.03544 20.3436 6.39644 20.3436 5.59844C20.3438 5.40966 20.3068 5.22269 20.2347 5.04824C20.1625 4.87379 20.0567 4.71528 19.9232 4.5818C19.7897 4.44831 19.6312 4.34247 19.4568 4.27034C19.2823 4.19821 19.0954 4.1612 18.9066 4.16144ZM24.4956 12.0004C24.4956 10.3444 24.5106 8.70344 24.4176 7.05044C24.3246 5.13044 23.8866 3.42644 22.4826 2.02244C21.0756 0.615437 19.3746 0.180437 17.4546 0.0874372C15.7986 -0.00556279 14.1576 0.00943725 12.5046 0.00943725C10.8486 0.00943725 9.20759 -0.00556279 7.55459 0.0874372C5.63459 0.180437 3.93059 0.618437 2.52659 2.02244C1.11959 3.42944 0.684588 5.13044 0.591588 7.05044C0.498588 8.70644 0.513588 10.3474 0.513588 12.0004C0.513588 13.6534 0.498588 15.2974 0.591588 16.9504C0.684588 18.8704 1.12259 20.5744 2.52659 21.9784C3.93359 23.3854 5.63459 23.8204 7.55459 23.9134C9.21059 24.0064 10.8516 23.9914 12.5046 23.9914C14.1606 23.9914 15.8016 24.0064 17.4546 23.9134C19.3746 23.8204 21.0786 23.3824 22.4826 21.9784C23.8896 20.5714 24.3246 18.8704 24.4176 16.9504C24.5136 15.2974 24.4956 13.6564 24.4956 12.0004ZM21.8556 19.0744C21.6366 19.6204 21.3726 20.0284 20.9496 20.4484C20.5266 20.8714 20.1216 21.1354 19.5756 21.3544C17.9976 21.9814 14.2506 21.8404 12.5016 21.8404C10.7526 21.8404 7.00259 21.9814 5.42459 21.3574C4.87859 21.1384 4.47059 20.8744 4.05059 20.4514C3.62759 20.0284 3.36359 19.6234 3.14459 19.0774C2.52059 17.4964 2.66159 13.7494 2.66159 12.0004C2.66159 10.2514 2.52059 6.50144 3.14459 4.92344C3.36359 4.37744 3.62759 3.96944 4.05059 3.54944C4.47359 3.12944 4.87859 2.86244 5.42459 2.64344C7.00259 2.01944 10.7526 2.16044 12.5016 2.16044C14.2506 2.16044 18.0006 2.01944 19.5786 2.64344C20.1246 2.86244 20.5326 3.12644 20.9526 3.54944C21.3756 3.97244 21.6396 4.37744 21.8586 4.92344C22.4826 6.50144 22.3416 10.2514 22.3416 12.0004C22.3416 13.7494 22.4826 17.4964 21.8556 19.0744Z" fill="#E61F5A"></path>
    </symbol>
    <symbol fill="none" xmlns="http://www.w3.org/2000/svg" viewBox="0 0 25 20" id="twitter">
        <path d="M24.5004 2.46548C23.6188 2.85141 22.6594 3.12917 21.6711 3.23735C22.6971 2.61879 23.4655 1.64156 23.832 0.489007C22.8692 1.07022 21.8145 1.47778 20.7146 1.6936C20.2549 1.19488 19.6989 0.797581 19.0813 0.526453C18.4636 0.255325 17.7976 0.116179 17.1247 0.117688C14.402 0.117688 12.2123 2.3573 12.2123 5.10564C12.2123 5.49158 12.2584 5.87752 12.3333 6.24884C8.2565 6.03248 4.62048 4.05601 2.2032 1.0299C1.76274 1.79335 1.53193 2.66261 1.53477 3.54727C1.53477 5.27814 2.402 6.80435 3.72444 7.70195C2.94511 7.6708 2.18402 7.45342 1.50308 7.06749V7.12889C1.50308 9.5527 3.19143 11.5613 5.44161 12.0233C5.01912 12.1347 4.58449 12.1916 4.14797 12.1929C3.82817 12.1929 3.52565 12.1607 3.22024 12.1168C3.84257 14.0933 5.65482 15.5289 7.8128 15.5757C6.12444 16.9177 4.00968 17.7071 1.7134 17.7071C1.3014 17.7071 0.921085 17.6925 0.526367 17.6457C2.70452 19.0637 5.28891 19.8824 8.0721 19.8824C17.1074 19.8824 22.0514 12.2864 22.0514 5.69332C22.0514 5.47696 22.0514 5.2606 22.037 5.04424C22.9936 4.33377 23.832 3.45371 24.5004 2.46548Z" fill="#21A6DF"></path>
    </symbol>
    <symbol fill="none" xmlns="http://www.w3.org/2000/svg" viewBox="0 0 25 18" id="youtube">
        <g clip-path="url(#clip0_964_14838)">
        <path d="M23.9699 2.93166C23.8335 2.3987 23.5663 1.91276 23.1951 1.52249C22.824 1.13221 22.3619 0.851291 21.855 0.707834C19.9884 0.176636 12.4879 0.176636 12.4879 0.176636C12.4879 0.176636 4.98729 0.176636 3.12071 0.707834C2.61385 0.851291 2.15172 1.13221 1.78057 1.52249C1.40941 1.91276 1.14225 2.3987 1.00582 2.93166C0.657288 4.93335 0.488155 6.96501 0.500644 8.99993C0.488155 11.0348 0.657288 13.0665 1.00582 15.0682C1.14225 15.6012 1.40941 16.0871 1.78057 16.4774C2.15172 16.8676 2.61385 17.1486 3.12071 17.292C4.98729 17.8232 12.4879 17.8232 12.4879 17.8232C12.4879 17.8232 19.9884 17.8232 21.855 17.292C22.3619 17.1486 22.824 16.8676 23.1951 16.4774C23.5663 16.0871 23.8335 15.6012 23.9699 15.0682C24.3184 13.0665 24.4876 11.0348 24.4751 8.99993C24.4876 6.96501 24.3184 4.93335 23.9699 2.93166ZM10.0904 12.7813V5.21852L16.3152 8.99993L10.0904 12.7813Z" fill="#E42F08"></path>
        </g>
        <defs>
        <clipPath id="clip0_964_14838">
            <rect width="24" height="17.6842" fill="white" transform="translate(0.5 0.157837)"></rect>
        </clipPath>
        </defs>
    </symbol>

    <symbol  xmlns="http://www.w3.org/2000/svg" viewBox="0 0 19 20" id="star">
        <path d="M4.53239 12.1308L3.16571 18.0488C3.12339 18.228 3.1361 18.4158 3.20217 18.5877C3.26824 18.7596 3.3846 18.9075 3.53606 19.0122C3.68752 19.1169 3.86704 19.1735 4.05117 19.1746C4.23529 19.1757 4.41547 19.1212 4.56816 19.0183L9.5625 15.6888L14.5568 19.0183C14.7131 19.1221 14.8973 19.1755 15.0848 19.1714C15.2723 19.1673 15.4541 19.1058 15.6056 18.9953C15.7571 18.8849 15.8712 18.7306 15.9325 18.5534C15.9937 18.3761 15.9993 18.1844 15.9483 18.0039L14.2707 12.1336L18.4312 8.38944C18.5645 8.26946 18.6597 8.11304 18.705 7.93955C18.7503 7.76605 18.7437 7.58308 18.6861 7.41327C18.6286 7.24345 18.5225 7.09424 18.381 6.98408C18.2395 6.87392 18.0688 6.80764 17.8901 6.79345L12.6609 6.37703L10.3981 1.36801C10.326 1.20672 10.2087 1.06976 10.0604 0.973657C9.91211 0.877554 9.7392 0.826416 9.5625 0.826416C9.38581 0.826416 9.21289 0.877554 9.06462 0.973657C8.91635 1.06976 8.79906 1.20672 8.7269 1.36801L6.46409 6.37703L1.23493 6.79254C1.05924 6.80645 0.891281 6.87069 0.751143 6.97757C0.611005 7.08445 0.504625 7.22943 0.44473 7.39518C0.384835 7.56094 0.37396 7.74044 0.413408 7.91221C0.452856 8.08398 0.540955 8.24074 0.667166 8.36376L4.53239 12.1308ZM7.14926 8.16288C7.31298 8.14998 7.47022 8.09328 7.60449 7.99871C7.73875 7.90414 7.84511 7.77519 7.9124 7.62538L9.5625 3.97387L11.2126 7.62538C11.2799 7.77519 11.3863 7.90414 11.5205 7.99871C11.6548 8.09328 11.812 8.14998 11.9757 8.16288L15.619 8.45181L12.6187 11.1521C12.3582 11.387 12.2546 11.7484 12.35 12.0859L13.4993 16.108L10.0725 13.8231C9.92207 13.7222 9.74503 13.6683 9.56388 13.6683C9.38273 13.6683 9.20568 13.7222 9.05527 13.8231L5.47439 16.2107L6.43749 12.0409C6.4728 11.8876 6.46806 11.7277 6.42372 11.5767C6.37939 11.4257 6.29695 11.2887 6.18433 11.1787L3.39777 8.4619L7.14926 8.16288Z"></path>
    </symbol>
    <symbol  xmlns="http://www.w3.org/2000/svg" viewBox="0 0 19 20" id="gold-star">
        <path d="M18.6306 7.41256C18.5729 7.24274 18.4668 7.09353 18.3253 6.98335C18.1838 6.87316 18.0132 6.80681 17.8344 6.79251L12.6053 6.377L10.3424 1.36798C10.2704 1.20665 10.1532 1.06963 10.0049 0.973442C9.85672 0.877257 9.68383 0.826025 9.50714 0.825928C9.33044 0.825831 9.1575 0.876874 9.00917 0.972896C8.86084 1.06892 8.74348 1.20582 8.67124 1.36707L6.40842 6.377L1.17927 6.79251C1.00358 6.80642 0.835617 6.87066 0.695479 6.97754C0.555341 7.08442 0.448961 7.2294 0.389066 7.39516C0.329171 7.56091 0.318296 7.74041 0.357744 7.91218C0.397192 8.08395 0.485291 8.24072 0.611502 8.36373L4.47581 12.1308L3.10913 18.0488C3.06763 18.2279 3.08093 18.4154 3.1473 18.5869C3.21368 18.7584 3.33006 18.9059 3.48135 19.0105C3.63263 19.115 3.81184 19.1716 3.99571 19.173C4.17959 19.1744 4.35964 19.1205 4.5125 19.0183L9.50684 15.6888L14.5012 19.0183C14.6574 19.1221 14.8417 19.1755 15.0292 19.1713C15.2167 19.1672 15.3984 19.1058 15.5499 18.9953C15.7015 18.8848 15.8156 18.7306 15.8768 18.5533C15.9381 18.3761 15.9436 18.1843 15.8926 18.0039L14.215 12.1336L18.3756 8.38941C18.648 8.14359 18.748 7.76019 18.6306 7.41256Z" ></path>
    </symbol>

    <symbol  xmlns="http://www.w3.org/2000/svg" viewBox="0 0 30 25" id="balance">
        <path d="M16.2709 22.2847H13.7289C13.6156 22.2847 13.5069 22.2406 13.4269 22.1623C13.3468 22.0839 13.3018 21.9777 13.3018 21.8669V1.68709C13.3018 1.24651 13.4807 0.823973 13.7991 0.512436C14.1176 0.200899 14.5495 0.0258789 14.9999 0.0258789C15.4503 0.0258789 15.8822 0.200899 16.2006 0.512436C16.5191 0.823973 16.698 1.24651 16.698 1.68709V21.8673C16.6979 21.978 16.6529 22.0842 16.5728 22.1624C16.4927 22.2407 16.3841 22.2847 16.2709 22.2847ZM14.1559 21.449H15.8438V1.68709C15.8438 1.46813 15.7549 1.25814 15.5966 1.10331C15.4384 0.948479 15.2237 0.861497 14.9999 0.861497C14.7761 0.861497 14.5614 0.948479 14.4031 1.10331C14.2449 1.25814 14.1559 1.46813 14.1559 1.68709V21.449Z" ></path>
        <path d="M4.70682 5.62696H3.24061C2.89274 5.62085 2.56122 5.48138 2.31742 5.23856C2.07361 4.99574 1.93701 4.66898 1.93701 4.32862C1.93701 3.98825 2.07361 3.6615 2.31742 3.41867C2.56122 3.17585 2.89274 3.03638 3.24061 3.03027H4.49883C4.6121 3.03027 4.72073 3.07429 4.80083 3.15265C4.88093 3.231 4.92592 3.33727 4.92592 3.44808C4.92592 3.55889 4.88093 3.66516 4.80083 3.74352C4.72073 3.82187 4.6121 3.86589 4.49883 3.86589H3.24061C3.11762 3.86951 3.00091 3.91984 2.91522 4.00623C2.82953 4.09261 2.7816 4.20825 2.7816 4.32862C2.7816 4.44899 2.82953 4.56462 2.91522 4.651C3.00091 4.73739 3.11762 4.78772 3.24061 4.79134H4.70682C4.8201 4.79134 4.92873 4.83536 5.00882 4.91371C5.08892 4.99207 5.13392 5.09834 5.13392 5.20915C5.13392 5.31996 5.08892 5.42623 5.00882 5.50459C4.92873 5.58294 4.8201 5.62696 4.70682 5.62696Z" ></path>
        <path d="M13.7288 5.62696H7.29038C7.1771 5.62696 7.06847 5.58294 6.98837 5.50459C6.90828 5.42623 6.86328 5.31996 6.86328 5.20915C6.86328 5.09834 6.90828 4.99207 6.98837 4.91371C7.06847 4.83536 7.1771 4.79134 7.29038 4.79134H13.3017V3.86589H7.49794C7.38467 3.86589 7.27604 3.82187 7.19594 3.74352C7.11585 3.66516 7.07085 3.55889 7.07085 3.44808C7.07085 3.33727 7.11585 3.231 7.19594 3.15265C7.27604 3.07429 7.38467 3.03027 7.49794 3.03027H13.7288C13.8421 3.03027 13.9507 3.07429 14.0308 3.15265C14.1109 3.231 14.1559 3.33727 14.1559 3.44808V5.20915C14.1559 5.31996 14.1109 5.42623 14.0308 5.50459C13.9507 5.58294 13.8421 5.62696 13.7288 5.62696Z" ></path>
        <path d="M22.6167 5.62696H16.2713C16.1581 5.62696 16.0494 5.58294 15.9693 5.50459C15.8892 5.42623 15.8442 5.31996 15.8442 5.20915V3.44808C15.8442 3.33727 15.8892 3.231 15.9693 3.15265C16.0494 3.07429 16.1581 3.03027 16.2713 3.03027H22.4091C22.5224 3.03027 22.631 3.07429 22.7111 3.15265C22.7912 3.231 22.8362 3.33727 22.8362 3.44808C22.8362 3.55889 22.7912 3.66516 22.7111 3.74352C22.631 3.82187 22.5224 3.86589 22.4091 3.86589H16.6984V4.79134H22.6167C22.7299 4.79134 22.8386 4.83536 22.9187 4.91371C22.9988 4.99207 23.0438 5.09834 23.0438 5.20915C23.0438 5.31996 22.9988 5.42623 22.9187 5.50459C22.8386 5.58294 22.7299 5.62696 22.6167 5.62696Z" ></path>
        <path d="M26.7548 5.62696H25.2928C25.1795 5.62696 25.0709 5.58294 24.9908 5.50459C24.9107 5.42623 24.8657 5.31996 24.8657 5.20915C24.8657 5.09834 24.9107 4.99207 24.9908 4.91371C25.0709 4.83536 25.1795 4.79134 25.2928 4.79134H26.7548C26.8778 4.78772 26.9945 4.73739 27.0802 4.651C27.1658 4.56462 27.2138 4.44899 27.2138 4.32862C27.2138 4.20825 27.1658 4.09261 27.0802 4.00623C26.9945 3.91984 26.8778 3.86951 26.7548 3.86589H25.5034C25.3901 3.86589 25.2815 3.82187 25.2014 3.74352C25.1213 3.66516 25.0763 3.55889 25.0763 3.44808C25.0763 3.33727 25.1213 3.231 25.2014 3.15265C25.2815 3.07429 25.3901 3.03027 25.5034 3.03027H26.7548C27.1026 3.03638 27.4341 3.17585 27.678 3.41867C27.9218 3.6615 28.0584 3.98825 28.0584 4.32862C28.0584 4.66898 27.9218 4.99574 27.678 5.23856C27.4341 5.48138 27.1026 5.62085 26.7548 5.62696Z" ></path>
        <path d="M20.4092 24.9735H9.59093C9.5261 24.9735 9.46213 24.959 9.40387 24.9312C9.34561 24.9034 9.29458 24.863 9.25466 24.813C9.21473 24.763 9.18696 24.7048 9.17345 24.6428C9.15993 24.5808 9.16103 24.5165 9.17665 24.455C9.35275 23.6287 9.80625 22.8838 10.465 22.3387C11.1238 21.7936 11.9499 21.4796 12.8121 21.4468H17.1881C18.0502 21.4796 18.8764 21.7936 19.5352 22.3387C20.1939 22.8838 20.6474 23.6287 20.8235 24.455C20.8391 24.5165 20.8402 24.5808 20.8267 24.6428C20.8132 24.7048 20.7854 24.763 20.7455 24.813C20.7056 24.863 20.6545 24.9034 20.5963 24.9312C20.538 24.959 20.474 24.9735 20.4092 24.9735ZM10.1816 24.1379H19.8185C19.6152 23.61 19.2572 23.1525 18.7893 22.8228C18.3213 22.4931 17.7643 22.3058 17.1881 22.2845H12.8121C12.2358 22.3058 11.6788 22.4931 11.2109 22.8228C10.743 23.1525 10.3849 23.61 10.1816 24.1379Z" ></path>
        <path d="M21.5658 24.9738H8.43442C8.32115 24.9738 8.21251 24.9298 8.13242 24.8514C8.05232 24.7731 8.00732 24.6668 8.00732 24.556C8.00732 24.4452 8.05232 24.3389 8.13242 24.2606C8.21251 24.1822 8.32115 24.1382 8.43442 24.1382H21.5658C21.6791 24.1382 21.7877 24.1822 21.8678 24.2606C21.9479 24.3389 21.9929 24.4452 21.9929 24.556C21.9929 24.6668 21.9479 24.7731 21.8678 24.8514C21.7877 24.9298 21.6791 24.9738 21.5658 24.9738Z" ></path>
        <path d="M29.5211 16.103H18.4845C18.413 16.103 18.3427 16.0855 18.2799 16.0521C18.2171 16.0186 18.1639 15.9703 18.1252 15.9115C18.0865 15.8527 18.0635 15.7853 18.0583 15.7156C18.0531 15.6458 18.0658 15.5759 18.0954 15.5122L22.7849 5.4121C22.808 5.362 22.841 5.31684 22.882 5.27922C22.9229 5.2416 22.9711 5.21225 23.0237 5.19287C23.0762 5.17348 23.1322 5.16443 23.1883 5.16624C23.2445 5.16805 23.2997 5.18068 23.3509 5.20341C23.4021 5.22614 23.4481 5.25851 23.4865 5.29869C23.5248 5.33886 23.5547 5.38604 23.5743 5.43753C23.594 5.48901 23.6031 5.54379 23.6011 5.59872C23.5991 5.65365 23.5861 5.70765 23.5627 5.75763L19.1474 15.2674H28.8565L24.4451 5.75763C24.4219 5.70765 24.409 5.65369 24.4072 5.59884C24.4053 5.54399 24.4145 5.48932 24.4343 5.43795C24.454 5.38658 24.4839 5.33952 24.5223 5.29946C24.5606 5.25939 24.6067 5.22711 24.6577 5.20445C24.7088 5.18179 24.764 5.1692 24.8201 5.16739C24.8761 5.16558 24.932 5.1746 24.9845 5.19392C25.037 5.21324 25.0851 5.24249 25.1261 5.28C25.1671 5.3175 25.2001 5.36254 25.2232 5.41252L29.908 15.5126C29.9374 15.5761 29.9502 15.6458 29.945 15.7153C29.9399 15.7849 29.917 15.852 29.8786 15.9107C29.8401 15.9694 29.7873 16.0177 29.7248 16.0513C29.6624 16.0849 29.5923 16.1027 29.5211 16.103Z" ></path>
        <path d="M24.0465 21.4324H23.9577C20.5379 21.4324 18.0557 19.0158 18.0557 15.6859C18.0557 15.5751 18.1007 15.4688 18.1808 15.3904C18.2609 15.3121 18.3695 15.2681 18.4828 15.2681H29.521C29.6343 15.2681 29.7429 15.3121 29.823 15.3904C29.9031 15.4688 29.9481 15.5751 29.9481 15.6859C29.9481 19.0179 27.4658 21.4324 24.0465 21.4324ZM18.9248 16.1037C19.1153 18.7702 21.1307 20.5968 23.9577 20.5968H24.0465C26.873 20.5968 28.8889 18.7702 29.0789 16.1037H18.9248Z" ></path>
        <path d="M24.0024 6.22313C23.5871 6.22322 23.1811 6.10281 22.8357 5.87716C22.4904 5.6515 22.2212 5.33072 22.0622 4.95539C21.9033 4.58006 21.8617 4.16705 21.9427 3.76858C22.0237 3.37012 22.2236 3.0041 22.5173 2.71682C22.811 2.42955 23.1851 2.23392 23.5924 2.15468C23.9997 2.07544 24.4219 2.11615 24.8056 2.27166C25.1893 2.42717 25.5172 2.6905 25.7478 3.02833C25.9785 3.36617 26.1016 3.76333 26.1015 4.1696C26.1008 4.71403 25.8795 5.23597 25.4859 5.62094C25.0924 6.0059 24.5589 6.22247 24.0024 6.22313ZM24.0024 2.95127C23.756 2.95119 23.5152 3.02257 23.3103 3.15639C23.1055 3.29022 22.9458 3.48046 22.8515 3.70308C22.7571 3.92569 22.7324 4.17067 22.7804 4.40703C22.8284 4.64339 22.947 4.86052 23.1211 5.03095C23.2953 5.20137 23.5172 5.31745 23.7588 5.36449C24.0004 5.41154 24.2508 5.38743 24.4784 5.29523C24.706 5.20303 24.9005 5.04688 25.0374 4.84651C25.1743 4.64615 25.2473 4.41058 25.2473 4.1696C25.247 3.84666 25.1157 3.53702 24.8823 3.30863C24.6489 3.08023 24.3325 2.95171 24.0024 2.95127Z" ></path>
        <path d="M11.5148 16.1032H0.478733C0.407273 16.1032 0.33696 16.0856 0.274235 16.0521C0.21151 16.0186 0.158378 15.9703 0.119705 15.9115C0.0810325 15.8527 0.0580559 15.7854 0.0528798 15.7157C0.0477037 15.6459 0.0604936 15.576 0.090078 15.5124L4.78042 5.41231C4.82726 5.31136 4.91317 5.23275 5.01926 5.19377C5.12534 5.15479 5.24292 5.15863 5.34611 5.20445C5.4493 5.25027 5.52966 5.33431 5.5695 5.43809C5.60935 5.54187 5.60542 5.65689 5.55859 5.75784L1.14329 15.2676H10.8524L6.44096 5.75784C6.41643 5.70769 6.40238 5.65327 6.39962 5.59774C6.39686 5.54222 6.40546 5.48672 6.42491 5.43449C6.44436 5.38225 6.47426 5.33434 6.51288 5.29356C6.55149 5.25278 6.59804 5.21995 6.64979 5.19698C6.70153 5.17402 6.75745 5.16139 6.81425 5.15983C6.87105 5.15827 6.9276 5.16782 6.98058 5.18791C7.03356 5.20801 7.08191 5.23824 7.1228 5.27684C7.16369 5.31545 7.19629 5.36164 7.2187 5.41273L11.9039 15.5128C11.9334 15.5765 11.9461 15.6464 11.9409 15.7161C11.9356 15.7858 11.9126 15.8531 11.8739 15.9118C11.8352 15.9705 11.782 16.0188 11.7193 16.0523C11.6566 16.0857 11.5863 16.1032 11.5148 16.1032Z" ></path>
        <path d="M6.04217 21.4324H5.95334C2.53403 21.4324 0.0517578 19.0179 0.0517578 15.6859C0.0517578 15.5751 0.096755 15.4688 0.176851 15.3904C0.256946 15.3121 0.365579 15.2681 0.478852 15.2681H11.5171C11.6304 15.2681 11.739 15.3121 11.8191 15.3904C11.8992 15.4688 11.9442 15.5751 11.9442 15.6859C11.9442 19.0179 9.46191 21.4324 6.04217 21.4324ZM0.920893 16.1037C1.11095 18.7702 3.12683 20.5968 5.95334 20.5968H6.04217C8.86911 20.5968 10.8846 18.7702 11.075 16.1037H0.920893Z" ></path>
        <path d="M5.99754 6.22313C5.58226 6.22313 5.17631 6.10266 4.83103 5.87695C4.48574 5.65124 4.21663 5.33044 4.05773 4.9551C3.89883 4.57977 3.85728 4.16676 3.93832 3.76833C4.01937 3.36989 4.21938 3.00391 4.51306 2.71668C4.80673 2.42944 5.18089 2.23386 5.58819 2.15465C5.9955 2.07545 6.41768 2.11618 6.80132 2.2717C7.18496 2.42723 7.51284 2.69055 7.7435 3.02838C7.97415 3.3662 8.09722 3.76335 8.09714 4.1696C8.09646 4.7141 7.87502 5.2361 7.4814 5.62108C7.08779 6.00606 6.55414 6.22258 5.99754 6.22313ZM5.99754 2.95127C5.75123 2.95127 5.51044 3.02273 5.30563 3.1566C5.10083 3.29047 4.9412 3.48075 4.84694 3.70337C4.75268 3.92599 4.72801 4.17095 4.77607 4.40729C4.82412 4.64362 4.94274 4.86071 5.11691 5.03109C5.29108 5.20148 5.51299 5.31751 5.75458 5.36452C5.99616 5.41153 6.24657 5.38741 6.47414 5.29519C6.70171 5.20298 6.89621 5.04683 7.03306 4.84647C7.16991 4.64612 7.24295 4.41057 7.24295 4.1696C7.24261 3.84658 7.11129 3.53689 6.8778 3.30848C6.64432 3.08007 6.32774 2.9516 5.99754 2.95127Z"></path>
    </symbol>
    <symbol  xmlns="http://www.w3.org/2000/svg" viewBox="0 0 24 24" id="auction">
        <g clip-path="url(#clip0_1081_612)">
        <path d="M5.52093 8.17275C5.33812 7.98994 5.04093 7.98994 4.85816 8.17275C4.67488 8.35604 4.67488 8.65275 4.85816 8.83557C5.04098 9.01885 5.33816 9.01885 5.52093 8.83557C5.70416 8.65275 5.70416 8.35604 5.52093 8.17275Z" ></path>
        <path d="M11.8687 20.9864C12.0754 20.7065 12.1871 20.3692 12.1871 20.0146C12.1871 19.11 11.4511 18.374 10.5465 18.374H2.57803C2.13961 18.374 1.72763 18.5446 1.41792 18.8544C1.10808 19.1642 0.937453 19.5762 0.937453 20.0146C0.937453 20.3778 1.05633 20.7137 1.25691 20.9859C0.510516 21.3783 0 22.1611 0 23.0613V23.5301C0 23.789 0.209906 23.9988 0.46875 23.9988H12.6558C12.9146 23.9988 13.1245 23.789 13.1245 23.5301V23.0613C13.1245 22.1615 12.6145 21.379 11.8687 20.9864ZM2.08078 19.5173C2.21348 19.3845 2.39011 19.3114 2.57803 19.3114H10.5465C10.9342 19.3114 11.2496 19.6269 11.2496 20.0145C11.2496 20.2025 11.1765 20.3791 11.0437 20.5118C10.911 20.6446 10.7344 20.7176 10.5465 20.7176H2.57803C2.19033 20.7176 1.87495 20.4022 1.87495 20.0146C1.87495 19.8266 1.94803 19.65 2.08078 19.5173ZM0.937453 23.0613C0.937453 22.286 1.5683 21.6551 2.34366 21.6551H2.57803H10.5465H10.7809C11.5562 21.6551 12.1871 22.286 12.1871 23.0613H0.937453Z" ></path>
        <path d="M23.5667 19.6933C23.4075 19.4466 23.2175 19.2284 23.002 19.0448L20.8118 17.1345C20.7947 17.1089 20.775 17.0845 20.7523 17.0618C20.7143 17.0238 20.6711 16.9942 20.6253 16.9719L19.3007 15.8167L13.17 10.4687C13.4209 10.2063 13.5591 9.86325 13.5591 9.49842C13.5591 9.12258 13.4128 8.76937 13.1469 8.5035C13.0309 8.38767 12.8991 8.29659 12.7583 8.22989L13.3255 7.6627C13.484 7.70484 13.6469 7.72641 13.8099 7.72641C14.29 7.72636 14.77 7.54364 15.1355 7.1782C15.4898 6.82397 15.6849 6.35311 15.6849 5.85234C15.6849 5.35158 15.4898 4.88072 15.1355 4.52648L11.1583 0.549328C10.804 0.195094 10.3331 0 9.83223 0C9.33156 0 8.8608 0.195094 8.50661 0.549328C8.01705 1.03889 7.85589 1.734 8.02211 2.35941L2.36312 8.01834C2.20675 7.97677 2.04405 7.95483 1.87783 7.95483C1.37683 7.95483 0.906156 8.14978 0.552203 8.50369C-0.178859 9.23475 -0.178859 10.4243 0.552203 11.1554L4.52941 15.1327C4.89498 15.4982 5.37512 15.681 5.85527 15.681C6.33545 15.681 6.81559 15.4982 7.18117 15.1327C7.67073 14.643 7.83189 13.948 7.66567 13.3226L8.23169 12.7565C8.2997 12.8985 8.392 13.0296 8.50666 13.1442C8.77225 13.4098 9.12536 13.5561 9.50111 13.5561C9.86556 13.5561 10.2085 13.4182 10.4712 13.1675L17.0012 20.67C17.0192 20.6981 17.0402 20.7249 17.0648 20.7495C17.0732 20.7578 17.0821 20.7655 17.0909 20.7731L19.0367 23.0087C19.0851 23.0658 19.1368 23.122 19.1905 23.1757C19.7249 23.7099 20.4308 23.9998 21.1719 23.9998C21.3025 23.9998 21.4344 23.9908 21.5665 23.9725C22.4491 23.8504 23.2119 23.3224 23.6591 22.5237C24.1491 21.6484 24.1127 20.5372 23.5667 19.6933ZM9.16956 1.21223C9.3467 1.03509 9.58211 0.9375 9.83228 0.9375C10.0828 0.9375 10.3183 1.03509 10.4954 1.21223L14.4727 5.18944C14.6498 5.36658 14.7474 5.60203 14.7474 5.85239C14.7474 6.10275 14.6498 6.3382 14.4726 6.51534C14.1072 6.88083 13.5126 6.88083 13.1472 6.51534L9.1698 2.53795C9.1697 2.53786 9.16966 2.53781 9.16956 2.53772C8.80408 2.17228 8.80408 1.57767 9.16956 1.21223ZM6.51827 14.4697C6.15273 14.8353 5.55784 14.8353 5.19231 14.4697L1.21511 10.4925C0.849531 10.127 0.849531 9.53222 1.21511 9.16659C1.39192 8.98973 1.62733 8.89233 1.87783 8.89233C2.12828 8.89233 2.36355 8.98969 2.54031 9.16641L6.51822 13.1443C6.88375 13.5097 6.88375 14.1044 6.51827 14.4697ZM8.4918 11.1707L7.18112 12.4814L3.2035 8.50378L8.50661 3.20058L12.4842 7.1782L11.1711 8.49131C11.1669 8.49534 11.1627 8.49928 11.1582 8.50373L8.50797 11.154C8.50248 11.1594 8.49719 11.165 8.4918 11.1707ZM10.1655 12.1485C10.1646 12.1495 10.1637 12.1504 10.1627 12.1513L9.83266 12.4814C9.74411 12.5699 9.62641 12.6187 9.50106 12.6187C9.37576 12.6187 9.25801 12.5699 9.16951 12.4814C9.08087 12.3928 9.03208 12.2749 9.03208 12.1495C9.03208 12.0268 9.07891 11.9114 9.16389 11.8243L11.8264 9.16172C12.0089 8.98425 12.304 8.98645 12.4843 9.16659C12.5729 9.25519 12.6217 9.37303 12.6217 9.49842C12.6217 9.62372 12.573 9.74123 12.4842 9.82978L12.1561 10.158C12.1538 10.1602 12.1516 10.1624 12.1494 10.1647L10.1655 12.1485ZM11.1362 12.5036L12.5062 11.1337L18.3066 16.1931L16.19 18.3097L11.1362 12.5036ZM16.8069 19.0186L19.0147 16.8108L19.7228 17.4285L17.4238 19.7275L16.8069 19.0186ZM22.8412 22.0658C22.5387 22.6059 22.0272 22.9624 21.438 23.0439C20.8501 23.1253 20.2724 22.9317 19.8533 22.5127C19.8172 22.4767 19.7827 22.4392 19.7506 22.4011C19.7491 22.3993 19.7476 22.3975 19.746 22.3958L18.0407 20.4363L20.4309 18.0461L22.3879 19.7531C22.3894 19.7544 22.3909 19.7557 22.3924 19.757C22.5389 19.8816 22.6689 20.0311 22.7792 20.202C23.1337 20.7498 23.1585 21.4988 22.8412 22.0658Z"></path>
        <path d="M8.83539 4.85799C8.6523 4.67494 8.35558 4.67494 8.17248 4.85799L6.18367 6.8468C6.00063 7.02985 6.00063 7.32666 6.18367 7.50966C6.27522 7.6012 6.39517 7.64695 6.51512 7.64695C6.63508 7.64695 6.75503 7.60116 6.84658 7.50966L8.83539 5.52085C9.01844 5.33785 9.01844 5.04108 8.83539 4.85799Z" ></path>
        </g>
        <defs>
        <clipPath id="clip0_1081_612">
            <rect width="24" height="24" fill="white"></rect>
        </clipPath>
        </defs>
    </symbol>
    <symbol  xmlns="http://www.w3.org/2000/svg" viewBox="0 0 33 27" id="document">
        <path d="M12.4665 5.00879H7.90828C7.48643 5.00879 7.14453 5.34978 7.14453 5.77051C7.14453 6.19124 7.48643 6.53223 7.90828 6.53223H12.4665C12.8882 6.53223 13.2302 6.19124 13.2302 5.77051C13.2302 5.34978 12.8882 5.00879 12.4665 5.00879Z" ></path>
        <path d="M12.4665 8.05615H7.90828C7.48643 8.05615 7.14453 8.39714 7.14453 8.81787C7.14453 9.2386 7.48643 9.57959 7.90828 9.57959H12.4665C12.8882 9.57959 13.2302 9.2386 13.2302 8.81787C13.2302 8.39714 12.8882 8.05615 12.4665 8.05615Z" ></path>
        <path d="M12.4665 11.103H7.90828C7.48643 11.103 7.14453 11.444 7.14453 11.8647C7.14453 12.2855 7.48643 12.6265 7.90828 12.6265H12.4665C12.8882 12.6265 13.2302 12.2855 13.2302 11.8647C13.2302 11.444 12.8882 11.103 12.4665 11.103Z" ></path>
        <path d="M12.4665 14.1499H7.90828C7.48643 14.1499 7.14453 14.4909 7.14453 14.9116C7.14453 15.3324 7.48643 15.6733 7.90828 15.6733H12.4665C12.8882 15.6733 13.2302 15.3324 13.2302 14.9116C13.2302 14.4909 12.8882 14.1499 12.4665 14.1499Z" ></path>
        <path d="M12.4665 17.248H7.90828C7.48643 17.248 7.14453 17.5892 7.14453 18.0098C7.14453 18.4305 7.48643 18.7715 7.90828 18.7715H12.4665C12.8882 18.7715 13.2302 18.4305 13.2302 18.0098C13.2302 17.5892 12.8882 17.248 12.4665 17.248Z" ></path>
        <path d="M15.0313 6.53223H19.5895C20.0114 6.53223 20.3533 6.19124 20.3533 5.77051C20.3533 5.34978 20.0114 5.00879 19.5895 5.00879H15.0313C14.6097 5.00879 14.2676 5.34978 14.2676 5.77051C14.2676 6.19124 14.6097 6.53223 15.0313 6.53223Z" ></path>
        <path d="M15.0313 9.57959H19.5895C20.0114 9.57959 20.3533 9.2386 20.3533 8.81787C20.3533 8.39714 20.0114 8.05615 19.5895 8.05615H15.0313C14.6097 8.05615 14.2676 8.39714 14.2676 8.81787C14.2676 9.2386 14.6097 9.57959 15.0313 9.57959Z" ></path>
        <path d="M17.9905 11.8647C17.9905 11.444 17.6486 11.103 17.2267 11.103H15.0313C14.6097 11.103 14.2676 11.444 14.2676 11.8647C14.2676 12.2855 14.6097 12.6265 15.0313 12.6265H17.2267C17.6486 12.6265 17.9905 12.2855 17.9905 11.8647Z" ></path>
        <path d="M25.2258 17.5695C24.8968 17.3062 24.4163 17.3588 24.1522 17.6869L22.1851 20.1327L20.9673 19.2528C20.6258 19.0058 20.148 19.082 19.9006 19.4226C19.6532 19.7634 19.7296 20.2396 20.0711 20.4864L21.8776 21.7918C22.0129 21.8894 22.1696 21.9368 22.3253 21.9368C22.5495 21.9368 22.771 21.8386 22.9214 21.6516L25.3437 18.6402C25.6077 18.3121 25.5549 17.8327 25.2258 17.5695Z" ></path>
        <path d="M27.1561 15.2314C26.1612 14.2217 24.8829 13.5854 23.4978 13.3979V3.0677C23.4978 1.37625 22.1179 0 20.422 0H7.07607C5.37992 0 4 1.37625 4 3.0677V20.7128C4 22.4044 5.37992 23.7807 7.07587 23.7807H17.8099C19.0178 25.1958 20.7545 26 22.6334 26C26.131 26 28.9763 23.1602 28.9763 19.6696C28.9763 17.9986 28.3299 16.4224 27.1561 15.2314ZM5.52749 20.7128V3.0677C5.52749 2.21632 6.22223 1.52344 7.07607 1.52344H20.422C21.2758 1.52344 21.9703 2.21632 21.9703 3.0677V13.3737C18.7833 13.7056 16.2906 16.4023 16.2906 19.6696C16.2906 20.5751 16.4799 21.4507 16.8431 22.2571H7.07607C6.22223 22.2571 5.52749 21.5644 5.52749 20.7128ZM22.6334 24.4766C21.1081 24.4766 19.7059 23.7781 18.7861 22.5606C18.1528 21.7221 17.8179 20.7225 17.8179 19.6696C17.8179 17.0191 19.9782 14.8626 22.6334 14.8626C22.6585 14.8626 22.6838 14.863 22.7088 14.8634L22.7206 14.8636C23.9881 14.886 25.1765 15.3958 26.0667 16.2992C26.958 17.2035 27.4488 18.4007 27.4488 19.6696C27.4488 22.3201 25.2887 24.4766 22.6334 24.4766Z" ></path>
    </symbol>

    <symbol fill="none" xmlns="http://www.w3.org/2000/svg" viewBox="0 0 24 24" id="face">
        <path d="M21.16 1H1.84C1.37537 1 1 1.37537 1 1.84V21.16C1 21.6246 1.37537 22 1.84 22H21.16C21.6246 22 22 21.6246 22 21.16V1.84C22 1.37537 21.6246 1 21.16 1ZM18.7345 7.12937H17.0571C15.742 7.12937 15.4874 7.75412 15.4874 8.67287V10.6967H18.6269L18.2174 13.8651H15.4874V22H12.214V13.8678H9.47612V10.6967H12.214V8.3605C12.214 5.64887 13.8704 4.171 16.2906 4.171C17.4509 4.171 18.4457 4.25763 18.7371 4.297V7.12937H18.7345Z" fill="#295C7A"></path>
    </symbol>
    <symbol fill="none" xmlns="http://www.w3.org/2000/svg" viewBox="0 0 20 21" id="insta">
        <path d="M9.99731 5.11248C7.15795 5.11248 4.86644 7.51861 4.86644 10.5C4.86644 13.4814 7.15795 15.8875 9.99731 15.8875C12.8367 15.8875 15.1282 13.4814 15.1282 10.5C15.1282 7.51861 12.8367 5.11248 9.99731 5.11248ZM9.99731 14.0015C8.16111 14.0015 6.66262 12.4281 6.66262 10.5C6.66262 8.57195 8.16111 6.99851 9.99731 6.99851C11.8335 6.99851 13.332 8.57195 13.332 10.5C13.332 12.4281 11.8335 14.0015 9.99731 14.0015ZM15.3383 3.63624C14.6754 3.63624 14.14 4.19837 14.14 4.89446C14.14 5.59056 14.6754 6.15269 15.3383 6.15269C16.0013 6.15269 16.5366 5.59318 16.5366 4.89446C16.5368 4.72917 16.5059 4.56546 16.4458 4.41272C16.3856 4.25997 16.2974 4.12118 16.1861 4.0043C16.0748 3.88742 15.9426 3.79475 15.7971 3.73159C15.6516 3.66843 15.4957 3.63603 15.3383 3.63624ZM19.9989 10.5C19.9989 9.05002 20.0114 7.61317 19.9338 6.16582C19.8563 4.48469 19.4911 2.99268 18.3203 1.76335C17.147 0.53139 15.7286 0.150507 14.1275 0.0690774C12.7466 -0.0123526 11.3782 0.000781319 9.99981 0.000781319C8.61891 0.000781319 7.25051 -0.0123526 5.8721 0.0690774C4.27105 0.150507 2.85012 0.534016 1.67935 1.76335C0.506076 2.9953 0.143338 4.48469 0.0657868 6.16582C-0.0117642 7.6158 0.000744099 9.05265 0.000744099 10.5C0.000744099 11.9474 -0.0117642 13.3868 0.0657868 14.8342C0.143338 16.5153 0.508578 18.0073 1.67935 19.2367C2.85262 20.4686 4.27105 20.8495 5.8721 20.9309C7.25301 21.0124 8.62141 20.9992 9.99981 20.9992C11.3807 20.9992 12.7491 21.0124 14.1275 20.9309C15.7286 20.8495 17.1495 20.466 18.3203 19.2367C19.4936 18.0047 19.8563 16.5153 19.9338 14.8342C20.0139 13.3868 19.9989 11.95 19.9989 10.5ZM17.7974 16.6939C17.6148 17.172 17.3947 17.5292 17.0419 17.897C16.6892 18.2674 16.3515 18.4985 15.8962 18.6903C14.5803 19.2393 11.4558 19.1158 9.99731 19.1158C8.53885 19.1158 5.4118 19.2393 4.09593 18.6929C3.64064 18.5012 3.30041 18.27 2.95018 17.8996C2.59745 17.5292 2.37731 17.1746 2.19469 16.6966C1.67434 15.3123 1.79192 12.0314 1.79192 10.5C1.79192 8.96859 1.67434 5.68512 2.19469 4.30344C2.37731 3.82537 2.59745 3.46812 2.95018 3.10038C3.30291 2.73263 3.64064 2.49884 4.09593 2.30709C5.4118 1.76072 8.53885 1.88418 9.99731 1.88418C11.4558 1.88418 14.5828 1.76072 15.8987 2.30709C16.354 2.49884 16.6942 2.73 17.0444 3.10038C17.3972 3.47075 17.6173 3.82537 17.7999 4.30344C18.3203 5.68512 18.2027 8.96859 18.2027 10.5C18.2027 12.0314 18.3203 15.3123 17.7974 16.6939Z" fill="#295C7A"></path>
    </symbol>
    <symbol fill="none" xmlns="http://www.w3.org/2000/svg" viewBox="0 0 21 17" id="twit">
        <path d="M21 2.01939C20.2277 2.35134 19.3873 2.59025 18.5217 2.68329C19.4204 2.15125 20.0934 1.31072 20.4145 0.319389C19.5711 0.819302 18.6473 1.16985 17.6838 1.35548C17.2811 0.926526 16.7941 0.5848 16.2531 0.351597C15.7121 0.118394 15.1287 -0.00128703 14.5392 1.04374e-05C12.1543 1.04374e-05 10.2363 1.92634 10.2363 4.29024C10.2363 4.6222 10.2767 4.95415 10.3423 5.27353C6.77118 5.08743 3.58623 3.38743 1.46881 0.784625C1.083 1.44128 0.880818 2.18895 0.883307 2.94986C0.883307 4.43862 1.64295 5.75134 2.80135 6.52338C2.11869 6.49659 1.45201 6.30962 0.855546 5.97767V6.03048C0.855546 8.11524 2.33446 9.8429 4.30549 10.2402C3.93541 10.336 3.5547 10.385 3.17234 10.3861C2.8922 10.3861 2.62721 10.3584 2.35969 10.3207C2.90482 12.0207 4.49225 13.2555 6.38253 13.2957C4.90362 14.45 3.0512 15.129 1.03978 15.129C0.678885 15.129 0.345752 15.1164 0 15.0762C1.90794 16.2959 4.17173 17 6.60966 17C14.5241 17 18.8548 10.4666 18.8548 4.79572C18.8548 4.60962 18.8548 4.42353 18.8422 4.23743C19.6801 3.62634 20.4145 2.86939 21 2.01939Z" fill="#295C7A"></path>
    </symbol>
</svg>